<svg width="19" height="19" viewBox="0 0 19 19" fill="none" xmlns="http://www.w3.org/2000/svg">
<path d="M14.1246 3.82178C13.5724 3.82178 13.0202 4.23225 13.0202 4.91638C13.0202 5.6005 13.4343 6.01098 14.1246 6.01098C14.6768 6.01098 15.229 5.6005 15.229 4.91638C15.229 4.23225 14.8148 3.82178 14.1246 3.82178Z" fill="#1D3B4F"/>
<path d="M18.266 5.87418C18.266 4.9164 18.128 4.3691 17.8519 3.68497C17.5758 3.13767 17.2997 2.59037 16.8855 2.1799C16.3334 1.6326 15.9192 1.35895 15.367 1.22212C14.8148 0.94847 14.1246 0.811646 13.1583 0.811646C12.1919 0.811646 11.9158 0.811646 9.56904 0.811646C7.22224 0.811646 6.8081 0.811646 5.97982 0.811646C5.01349 0.811646 4.4613 0.94847 3.77106 1.22212C3.21888 1.49577 2.66668 1.76942 2.25254 2.1799C1.70035 2.7272 1.42426 3.13767 1.28621 3.68497C1.01012 4.23227 0.87207 4.9164 0.87207 5.87418C0.87207 6.83195 0.87207 7.1056 0.87207 9.43163C0.87207 11.7577 0.87207 12.1681 0.87207 12.9891C0.87207 13.9469 1.01012 14.4942 1.28621 15.1783C1.56231 15.7256 1.8384 16.2729 2.25254 16.6834C2.80473 17.2307 3.21888 17.5043 3.77106 17.6411C4.32325 17.9148 5.01349 18.0516 5.97982 18.0516C6.94615 18.0516 7.22224 18.0516 9.56904 18.0516C11.9158 18.0516 12.33 18.0516 13.1583 18.0516C14.1246 18.0516 14.6768 17.9148 15.367 17.6411C15.9192 17.3675 16.4714 17.0938 16.8855 16.6834C17.4377 16.1361 17.7138 15.7256 17.8519 15.1783C18.128 14.631 18.266 13.9469 18.266 12.9891C18.266 12.0313 18.266 11.7577 18.266 9.43163C18.266 7.1056 18.266 6.83195 18.266 5.87418ZM16.6095 12.9891C16.6095 13.81 16.4714 14.3573 16.3334 14.631C16.1953 15.0415 15.9192 15.3151 15.6431 15.5888C15.367 15.8624 15.0909 16.1361 14.6768 16.2729C14.4007 16.4097 13.8485 16.5465 13.0202 16.5465C12.0539 16.5465 11.7778 16.5465 9.431 16.5465C7.0842 16.5465 6.8081 16.5465 5.84177 16.5465C5.01349 16.5465 4.4613 16.4097 4.18521 16.2729C3.77106 16.1361 3.49497 15.8624 3.21887 15.5888C2.94278 15.3151 2.66669 15.0415 2.52864 14.631C2.39059 14.3573 2.25254 13.81 2.25254 12.9891C2.25254 12.0313 2.25254 11.7577 2.25254 9.43163C2.25254 7.1056 2.25254 6.83195 2.25254 5.87418C2.25254 5.05323 2.39059 4.50593 2.52864 4.23228C2.66669 3.8218 2.94278 3.54815 3.21887 3.2745C3.49497 3.00085 3.77106 2.7272 4.18521 2.59037C4.59935 2.59037 5.01349 2.45355 5.97982 2.45355C6.94615 2.45355 7.22224 2.45355 9.56904 2.45355C11.9158 2.45355 12.1919 2.45355 13.1583 2.45355C13.9866 2.45355 14.5387 2.59037 14.8148 2.7272C15.229 2.86402 15.5051 3.13767 15.7812 3.41132C16.0573 3.68497 16.3334 3.95862 16.4714 4.3691C16.6095 4.64275 16.7475 5.19005 16.7475 6.011C16.7475 6.96878 16.7475 7.24243 16.7475 9.56846C16.7475 11.8945 16.7475 12.1681 16.6095 12.9891Z" fill="#1D3B4F"/>
<path d="M9.43098 5.05322C6.94613 5.05322 4.87543 7.1056 4.87543 9.56845C4.87543 12.0313 6.94613 14.0837 9.43098 14.0837C11.9158 14.0837 13.9865 12.0313 13.9865 9.56845C13.9865 7.1056 11.9158 5.05322 9.43098 5.05322ZM9.43098 12.4418C7.77442 12.4418 6.53199 11.0735 6.53199 9.56845C6.53199 8.06338 7.91246 6.69513 9.43098 6.69513C11.0875 6.69513 12.33 8.06338 12.33 9.56845C12.33 11.0735 11.0875 12.4418 9.43098 12.4418Z" fill="#1D3B4F"/>
</svg>
