<svg width="18" height="18" viewBox="0 0 18 18" fill="none" xmlns="http://www.w3.org/2000/svg">
<path d="M15.6464 0.0853271H1.28954C0.599299 0.0853271 0.0471191 0.632628 0.0471191 1.31675V15.8202C0.0471191 16.5043 0.599299 17.0516 1.28954 17.0516H15.7845C16.4747 17.0516 17.0269 16.5043 17.0269 15.8202V1.31675C17.0269 0.632628 16.3367 0.0853271 15.6464 0.0853271ZM5.15486 14.1783H2.53196V6.51611H5.15486V14.1783ZM3.91243 5.55833C3.08415 5.55833 2.53196 5.01103 2.53196 4.19008C2.53196 3.50596 3.08415 2.82183 4.05048 2.82183C4.87876 2.82183 5.43095 3.36913 5.43095 4.19008C5.2929 5.01103 4.74072 5.55833 3.91243 5.55833ZM14.404 14.1783H11.7811V10.0736C11.7811 8.97896 11.367 8.29484 10.5387 8.29484C9.84847 8.29484 9.43433 8.70531 9.15823 9.25261C9.15823 9.38944 9.02019 9.66309 9.02019 9.93674V14.1783H6.53533C6.53533 14.1783 6.53533 7.20024 6.53533 6.51611H9.15823V7.61071C9.43433 7.06341 10.1246 6.37929 11.505 6.37929C13.1616 6.37929 14.404 7.47389 14.404 9.79991V14.1783Z" fill="#1D3B4F"/>
</svg>
