<svg width="167" height="75" viewBox="0 0 167 75" fill="none" xmlns="http://www.w3.org/2000/svg">
<path d="M47.3288 39.293H44.5622C44.3216 39.293 44.2013 39.4143 44.081 39.5355C43.4796 40.5057 42.8782 41.5972 42.1565 42.9312C41.555 44.2652 40.8333 45.5993 40.1116 46.9333C39.5102 48.2673 38.7884 49.7226 38.187 51.1779L37.2247 53.8459C36.8639 52.997 36.503 52.1481 36.1422 51.2992C35.5407 49.8439 34.819 48.5098 34.2176 47.0546C33.6161 45.5993 32.8944 44.2652 32.1727 43.0525C31.451 41.7185 30.8496 40.627 30.2481 39.6568C30.1279 39.5355 29.8873 39.4143 29.767 39.4143H27.0004C26.6396 39.4143 26.399 39.6568 26.399 39.8994C26.1584 41.4759 26.0381 43.1738 25.9178 44.9929C25.7976 46.812 25.557 48.6311 25.4367 50.5715C25.3164 52.3906 25.1961 54.4523 25.0758 56.3927C24.9556 58.3331 24.8353 60.2735 24.8353 62.2139C24.8353 62.3351 24.8353 62.5777 24.9556 62.699C25.0758 62.8202 25.1961 62.9415 25.4367 62.9415H28.4438C28.8047 62.9415 29.0453 62.699 29.0453 62.3351C29.1656 59.3033 29.2858 56.3927 29.4061 53.3608C29.5264 51.1779 29.6467 49.1162 29.767 47.1758C30.1279 47.7822 30.3684 48.5098 30.7293 49.2375C31.0901 50.0864 31.5713 51.0566 32.0524 52.0268C32.5336 52.997 32.8944 53.9672 33.3756 54.8161C33.7364 55.7863 34.2176 56.6352 34.4581 57.3629C34.819 58.0905 35.0596 58.8182 35.3001 59.3033C35.4204 59.5458 35.661 59.6671 35.9016 59.6671H38.4276C38.6682 59.6671 38.9087 59.5458 39.029 59.3033C39.2696 58.8182 39.5102 58.0905 39.871 57.3629C40.2319 56.514 40.5927 55.665 40.9536 54.8161C41.3144 53.8459 41.7956 52.997 42.2767 52.0268C42.7579 51.0566 43.1187 50.0864 43.5999 49.2375C43.9607 48.5098 44.3216 47.7822 44.5622 47.1758C44.6825 49.1162 44.8027 51.1779 44.923 53.3608C45.0433 56.2714 45.1636 59.3033 45.2839 62.3351C45.2839 62.699 45.5245 62.9415 45.8853 62.9415H48.8925C49.0128 62.9415 49.2533 62.8202 49.3736 62.699C49.4939 62.5777 49.4939 62.4564 49.4939 62.2139C49.2533 54.5736 48.6519 47.0546 47.9302 39.8994C47.9302 39.5355 47.6896 39.293 47.3288 39.293Z" fill="white"/>
<path d="M60.1993 44.5077C59.1168 44.5077 58.1545 44.7503 57.1922 45.1141C56.2299 45.4779 55.2676 46.0843 54.5459 46.9332C53.8242 47.6609 53.2228 48.7523 52.7416 49.8438C52.2605 51.0565 52.0199 52.3906 52.0199 53.9671C52.0199 55.3011 52.1402 56.5139 52.501 57.6054C52.8619 58.6968 53.4633 59.7883 54.185 60.516C54.9068 61.3649 55.8691 61.9712 56.9516 62.4563C58.0342 62.9414 59.3573 63.184 60.9211 63.184C62.1239 63.184 63.2065 63.0627 64.1688 62.8202C65.1311 62.5776 65.8528 62.3351 66.2137 62.2138C66.4542 62.0925 66.5745 61.85 66.5745 61.6074L66.2137 59.0607C66.2137 58.8181 66.0934 58.6968 65.8528 58.5756C65.7325 58.4543 65.4919 58.4543 65.3717 58.5756C65.0108 58.6968 64.5297 58.9394 63.9282 59.0607C63.3268 59.1819 62.4848 59.3032 61.4022 59.3032C59.7182 59.3032 58.5153 58.9394 57.7936 58.0905C57.1922 57.3628 56.7111 56.3926 56.5908 55.1799H67.2962C67.6571 55.1799 67.8977 54.9373 67.8977 54.6948C67.8977 54.4522 67.8977 54.331 67.8977 54.0884V53.6033C67.8977 50.5714 67.2962 48.2672 65.9731 46.8119C64.5297 45.2354 62.6051 44.5077 60.1993 44.5077ZM60.1993 48.2672C61.2819 48.2672 62.0036 48.6311 62.6051 49.3587C63.0862 49.9651 63.4471 50.814 63.4471 51.6629H56.5908C56.7111 51.4204 56.7111 51.0565 56.8313 50.814C56.9516 50.3289 57.3125 49.8438 57.5531 49.48C57.9139 49.1161 58.2748 48.7523 58.6356 48.6311C59.1168 48.3885 59.5979 48.2672 60.1993 48.2672Z" fill="white"/>
<path d="M81.1291 44.9929C81.0088 44.9929 80.7682 44.8716 80.5277 44.8716C80.2871 44.8716 79.9262 44.7503 79.6857 44.7503C79.3248 44.7503 78.9639 44.629 78.7234 44.629C78.3625 44.629 78.0016 44.629 77.7611 44.629C76.4379 44.629 75.2351 44.7503 74.1525 44.9929C73.0699 45.2354 72.2279 45.478 71.5062 45.7205C71.2656 45.8418 71.1453 46.0843 71.1453 46.3269V62.3351C71.1453 62.6989 71.3859 62.9415 71.7468 62.9415H74.7539C75.1148 62.9415 75.3553 62.6989 75.3553 62.3351V48.6311C75.4756 48.6311 75.7162 48.5098 75.9568 48.5098C76.4379 48.3885 76.9191 48.3885 77.5205 48.3885C78.3625 48.3885 78.9639 48.3885 79.4451 48.5098C80.0465 48.6311 80.4074 48.7524 80.5277 48.7524C80.6479 48.7524 80.8885 48.7524 81.0088 48.7524C81.1291 48.6311 81.2494 48.5098 81.2494 48.3885L81.7305 45.8418C81.4899 45.4779 81.3697 45.1141 81.1291 44.9929Z" fill="white"/>
<path d="M96.2852 59.4245C95.6837 58.5756 94.962 57.7266 94.2403 56.8777C93.5186 56.0288 92.7969 55.1799 92.0752 54.4522C91.594 53.8458 90.9926 53.3608 90.5114 52.9969L91.8346 51.6629C92.436 51.0565 93.0374 50.3289 93.7592 49.7225C94.3606 49.1161 94.962 48.3885 95.5635 47.7821C96.1649 47.1758 96.646 46.5694 97.1272 45.963C97.2475 45.8417 97.3677 45.4779 97.2475 45.3566C97.1272 45.1141 96.8866 44.9928 96.646 44.9928H93.1577C93.0374 44.9928 92.7969 45.1141 92.6766 45.2354C92.3157 45.7205 91.8346 46.2056 91.3534 46.8119C90.8723 47.4183 90.2709 48.0247 89.6694 48.631C89.068 49.2374 88.4666 49.9651 87.8651 50.5714L87.1434 51.2991V37.2313C87.1434 37.11 87.0231 36.8674 86.9029 36.7462C86.7826 36.6249 86.542 36.6249 86.4217 36.6249L83.4146 37.11C83.174 37.11 82.9334 37.3525 82.9334 37.7163V62.2138C82.9334 62.5776 83.174 62.8202 83.5348 62.8202H86.542C86.9029 62.8202 87.1434 62.5776 87.1434 62.2138V55.4224C87.384 55.665 87.7449 55.9075 87.9854 56.1501C88.5869 56.7564 89.3086 57.3628 89.91 58.0905C90.5114 58.8181 91.1129 59.5457 91.7143 60.2734C92.3157 61.001 92.7969 61.85 93.278 62.5776C93.3983 62.8202 93.6389 62.8202 93.7592 62.8202H97.3677C97.6083 62.8202 97.7286 62.6989 97.8489 62.5776C97.9692 62.3351 97.9692 62.2138 97.8489 61.9712C97.488 61.1223 97.0069 60.2734 96.2852 59.4245Z" fill="white"/>
<path d="M111.201 46.4481C110.599 45.8417 109.877 45.3566 109.035 44.9928C108.193 44.629 107.111 44.5077 105.788 44.5077C104.705 44.5077 103.743 44.629 102.781 44.7503C101.818 44.8715 101.217 45.1141 100.736 45.2354C100.495 45.3566 100.375 45.5992 100.375 45.8417L100.736 48.2672C100.736 48.5098 100.856 48.6311 100.976 48.7523C101.097 48.8736 101.337 48.8736 101.457 48.7523C101.818 48.6311 102.299 48.5098 103.021 48.3885C103.743 48.2672 104.585 48.146 105.427 48.146C106.149 48.146 106.63 48.2672 106.991 48.3885C107.351 48.6311 107.712 48.7523 107.953 49.1161C108.193 49.48 108.314 49.7225 108.434 50.2076C108.554 50.6927 108.554 51.0565 108.554 51.5416V51.6629C108.434 51.6629 108.193 51.6629 108.073 51.5416C107.712 51.5416 107.472 51.4204 107.111 51.4204C106.75 51.4204 106.389 51.4204 106.149 51.4204C105.186 51.4204 104.224 51.5416 103.382 51.7842C102.42 52.0267 101.698 52.2693 100.976 52.7544C100.255 53.2395 99.6531 53.8458 99.2923 54.5735C98.8111 55.3011 98.6909 56.2713 98.6909 57.2415C98.6909 58.333 98.8111 59.1819 99.172 60.0308C99.5329 60.7585 100.014 61.4861 100.736 61.9712C101.337 62.4563 102.179 62.8202 103.021 62.9414C103.863 63.184 104.825 63.3053 105.788 63.3053C106.509 63.3053 107.111 63.3053 107.833 63.184C108.554 63.184 109.156 63.0627 109.757 63.0627C110.359 62.9414 110.84 62.9414 111.321 62.8202C111.802 62.6989 112.163 62.6989 112.403 62.6989C112.644 62.6989 112.885 62.4563 112.885 62.0925V51.6629C112.885 50.6927 112.764 49.7225 112.524 48.8736C112.163 47.9034 111.802 47.0545 111.201 46.4481ZM108.675 55.3011V59.3032C108.434 59.3032 108.193 59.3032 107.833 59.4245C107.351 59.4245 106.75 59.4245 106.028 59.4245C104.946 59.4245 104.104 59.3032 103.623 58.9394C103.141 58.6968 102.901 58.0905 102.901 57.2415C102.901 56.7564 103.021 56.5139 103.141 56.2713C103.382 56.0288 103.623 55.7862 103.983 55.665C104.344 55.5437 104.705 55.4224 105.186 55.3011C105.667 55.1799 106.149 55.1799 106.509 55.1799C107.111 55.1799 107.712 55.1799 108.193 55.3011C108.314 55.1799 108.554 55.3011 108.675 55.3011Z" fill="white"/>
<path d="M130.206 47.1758C129.484 46.3268 128.642 45.7205 127.68 45.2354C126.718 44.7503 125.515 44.5077 124.312 44.5077C123.35 44.5077 122.387 44.629 121.545 44.8715C121.184 44.9928 120.944 45.1141 120.703 45.2354V37.2313C120.703 37.11 120.583 36.8674 120.463 36.7462C120.342 36.6249 120.102 36.6249 119.982 36.6249L116.974 37.11C116.734 37.11 116.493 37.3525 116.493 37.7163V61.7287C116.493 61.9712 116.614 62.2138 116.974 62.3351C117.696 62.5776 118.538 62.6989 119.621 62.9414C120.703 63.184 122.026 63.184 123.35 63.184C124.673 63.184 125.876 62.9414 126.958 62.5776C128.041 62.0925 129.003 61.4861 129.725 60.7585C130.446 59.9096 131.168 58.9394 131.529 57.8479C131.89 56.7564 132.13 55.4224 132.13 53.9671C132.13 52.6331 132.01 51.4204 131.649 50.2076C131.409 48.9949 130.928 48.0247 130.206 47.1758ZM128.041 53.8458C128.041 55.665 127.56 56.999 126.718 57.9692C125.876 58.9394 124.793 59.3032 123.35 59.3032C122.508 59.3032 121.906 59.3032 121.425 59.1819C121.184 59.1819 120.944 59.0606 120.703 59.0606V49.2374C120.944 48.9949 121.425 48.8736 121.906 48.631C122.508 48.3885 123.229 48.2672 123.951 48.2672C124.673 48.2672 125.394 48.3885 125.876 48.631C126.357 48.8736 126.838 49.2374 127.199 49.7225C127.56 50.2076 127.8 50.814 127.92 51.4204C127.92 52.2693 128.041 52.9969 128.041 53.8458Z" fill="white"/>
<path d="M146.685 46.4481C146.084 45.8417 145.362 45.3566 144.52 44.9928C143.678 44.629 142.595 44.5077 141.272 44.5077C140.19 44.5077 139.227 44.629 138.265 44.7503C137.303 44.8715 136.701 45.1141 136.22 45.2354C135.98 45.3566 135.859 45.5992 135.859 45.8417L136.22 48.2672C136.22 48.5098 136.34 48.6311 136.461 48.7523C136.581 48.8736 136.822 48.8736 136.942 48.7523C137.303 48.6311 137.784 48.5098 138.506 48.3885C139.227 48.2672 140.069 48.146 140.911 48.146C141.633 48.146 142.114 48.2672 142.475 48.3885C142.836 48.6311 143.197 48.7523 143.437 49.1161C143.678 49.48 143.798 49.7225 143.918 50.2076C144.039 50.6927 144.039 51.0565 144.039 51.5416V51.6629C143.918 51.6629 143.678 51.6629 143.558 51.5416C143.197 51.5416 142.956 51.4204 142.595 51.4204C142.234 51.4204 141.874 51.4204 141.633 51.4204C140.671 51.4204 139.708 51.5416 138.866 51.7842C137.904 52.0267 137.182 52.2693 136.461 52.7544C135.739 53.2395 135.138 53.8458 134.777 54.5735C134.296 55.3011 134.175 56.2713 134.175 57.2415C134.175 58.333 134.296 59.1819 134.656 60.0308C135.017 60.7585 135.498 61.4861 136.22 61.9712C136.822 62.4563 137.664 62.8202 138.506 62.9414C139.348 63.184 140.31 63.3053 141.272 63.3053C141.994 63.3053 142.595 63.3053 143.317 63.184C144.039 63.184 144.64 63.0627 145.242 63.0627C145.843 62.9414 146.324 62.9414 146.805 62.8202C147.286 62.6989 147.647 62.6989 147.888 62.6989C148.128 62.6989 148.369 62.4563 148.369 62.0925V51.6629C148.369 50.6927 148.249 49.7225 148.008 48.8736C147.647 47.9034 147.166 47.0545 146.685 46.4481ZM144.039 55.3011V59.3032C143.798 59.3032 143.558 59.3032 143.197 59.4245C142.716 59.4245 142.114 59.4245 141.392 59.4245C140.31 59.4245 139.468 59.3032 138.987 58.9394C138.506 58.6968 138.265 58.0905 138.265 57.2415C138.265 56.7564 138.385 56.5139 138.506 56.2713C138.746 56.0288 138.987 55.7862 139.348 55.665C139.708 55.5437 140.069 55.4224 140.55 55.3011C141.032 55.1799 141.513 55.1799 141.874 55.1799C142.475 55.1799 143.076 55.1799 143.558 55.3011C143.798 55.1799 143.918 55.3011 144.039 55.3011Z" fill="white"/>
<path d="M166.171 49.6012C165.931 48.631 165.57 47.6609 164.968 46.9332C164.367 46.2056 163.645 45.5992 162.683 45.1141C161.721 44.7503 160.518 44.5077 159.195 44.5077C158.593 44.5077 157.872 44.629 157.27 44.7503C156.909 44.8715 156.548 44.8715 156.188 44.9928V37.2313C156.188 37.11 156.067 36.8674 155.947 36.7462C155.827 36.6249 155.586 36.6249 155.466 36.6249L152.459 37.11C152.218 37.11 151.978 37.3525 151.978 37.7163V62.2138C151.978 62.5776 152.218 62.8202 152.579 62.8202H155.586C155.947 62.8202 156.188 62.5776 156.188 62.2138V48.7523C156.188 48.7523 156.188 48.7523 156.308 48.7523C156.548 48.7523 156.789 48.631 157.03 48.631C157.27 48.631 157.631 48.5098 157.992 48.5098C159.074 48.3885 160.037 48.5098 160.638 48.7523C161.119 48.8736 161.36 49.1161 161.6 49.48C161.841 49.8438 162.082 50.3289 162.202 51.0565C162.322 51.7842 162.442 52.6331 162.442 53.6033V62.3351C162.442 62.6989 162.683 62.9414 163.044 62.9414H166.051C166.412 62.9414 166.652 62.6989 166.652 62.3351V52.9969C166.532 51.6629 166.412 50.5714 166.171 49.6012Z" fill="white"/>
<path d="M21.4672 33.1079C21.2267 33.1079 21.1064 33.1079 20.8658 33.1079C13.5284 32.9866 7.39377 26.6804 7.39377 19.2826C7.39377 16.7359 7.9952 14.3104 9.31835 12.2487C11.3632 8.73176 15.2124 6.54882 19.1818 6.54882C24.2338 6.54882 28.6844 9.82323 30.1278 14.6742C30.3684 15.5231 30.4887 16.4933 30.4887 17.4635C30.4887 22.557 26.399 26.6804 21.347 26.6804C20.5049 26.6804 19.6629 26.5591 18.9412 26.3165C15.9341 25.4676 13.8892 22.6783 13.8892 19.5252C13.8892 18.4337 14.1298 17.221 14.7312 16.2508C15.5732 14.5529 17.2572 13.5827 19.0615 13.4615C22.189 13.3402 23.7527 15.4018 24.1135 17.3422C24.2338 18.0699 23.7527 18.9188 23.031 19.0401C22.3092 19.1614 21.4672 18.6763 21.347 17.9486C21.2267 17.3422 20.7455 16.2508 19.1818 16.372C18.3398 16.372 17.6181 16.8571 17.1369 17.7061C16.7761 18.3124 16.6558 18.9188 16.6558 19.6465C16.6558 21.4656 17.8587 23.1634 19.6629 23.6485C20.2644 23.7698 20.7455 23.8911 21.347 23.8911C24.8352 23.8911 27.6018 21.1017 27.6018 17.5848C27.6018 16.9784 27.4815 16.2508 27.3613 15.6444C26.2787 12.0062 22.9107 9.4594 19.0615 9.4594C16.0544 9.4594 13.1675 11.036 11.6038 13.704C10.6415 15.4018 10.0401 17.3422 10.0401 19.2826C10.0401 25.2251 14.8515 30.1973 20.7455 30.3186C20.8658 30.3186 21.1064 30.3186 21.2267 30.3186C28.3235 30.3186 33.977 24.4974 33.977 17.4635C33.977 16.372 33.8567 15.2806 33.6161 14.1891C31.9321 7.64029 26.0381 3.03186 19.3021 3.03186C11.3632 2.91058 4.74748 9.58068 4.74748 17.8273C4.74748 19.4039 4.98805 20.8592 5.4692 22.3145C5.58948 22.557 5.58948 22.6783 5.70977 22.9209C5.95034 23.6485 5.58948 24.4974 4.86777 24.74C4.14605 24.9825 3.30405 24.6187 3.06348 23.8911C2.94319 23.6485 2.94319 23.406 2.8229 23.1634C2.22147 21.4656 1.9809 19.6465 1.9809 17.7061C1.86062 8.00411 9.79949 0 19.5427 0C27.6018 0 34.5784 5.45735 36.6233 13.3402C36.9841 14.6742 37.1044 16.0082 37.1044 17.3422C37.1044 26.074 30.1278 33.1079 21.4672 33.1079Z" fill="#FFBE35"/>
<path d="M16.2949 37.2313C16.1746 37.2313 15.9341 37.2313 15.8138 37.11C11.2429 35.5334 7.39376 32.3803 4.86775 28.3783C4.38661 27.6506 4.62718 26.8017 5.3489 26.4379C6.07061 25.9528 6.91261 26.1953 7.27347 26.923C9.43862 30.4399 12.9269 33.108 16.7761 34.5632C17.4978 34.8058 17.8586 35.6547 17.6181 36.3824C17.4978 36.8675 16.8964 37.2313 16.2949 37.2313Z" fill="#FFBE35"/>
<path d="M11.4835 40.627C11.2429 40.627 11.1226 40.627 10.8821 40.5057C7.51406 38.9291 4.62719 36.5036 2.58233 33.5931C2.10118 32.9867 2.22147 32.0165 2.94318 31.5314C3.54462 31.0463 4.5069 31.1676 4.98805 31.8952C6.79234 34.442 9.31835 36.5036 12.2052 37.9589C12.9269 38.3228 13.2878 39.1717 12.9269 39.8993C12.5661 40.3844 12.0849 40.627 11.4835 40.627Z" fill="#FFBE35"/>
<path d="M6.79233 43.9013C6.55176 43.9013 6.31119 43.78 6.07062 43.6588C3.78518 42.3248 1.86061 40.6269 0.296887 38.6865C-0.184257 38.0801 -0.0639706 37.11 0.537459 36.6249C1.13889 36.1398 2.10118 36.261 2.58232 36.8674C4.02575 38.5652 5.70976 40.1418 7.63434 41.2333C8.35605 41.5971 8.59662 42.5673 8.11548 43.1737C7.75462 43.6588 7.27348 43.9013 6.79233 43.9013Z" fill="#FFBE35"/>
<path d="M60.0791 69.9745C60.0791 70.5809 59.8385 71.066 59.2371 71.3086C59.8385 71.5511 60.1994 71.7937 60.3196 72.2788C60.4399 72.4 60.4399 72.6426 60.4399 72.8851C60.4399 73.1277 60.4399 73.3702 60.3196 73.4915C60.1994 73.7341 60.0791 73.8553 59.9588 74.0979C59.5979 74.4617 58.9965 74.583 58.2748 74.583H56.1096C55.9894 74.583 55.8691 74.583 55.8691 74.4617C55.7488 74.3404 55.7488 74.3404 55.7488 74.2192V68.8831C55.7488 68.7618 55.7488 68.6405 55.8691 68.6405C55.9893 68.5193 55.9894 68.5193 56.1096 68.5193H58.1545C58.7559 68.5193 59.2371 68.6405 59.5979 69.0044C59.8385 69.1256 60.0791 69.4895 60.0791 69.9745ZM59.2371 69.9745C59.2371 69.732 59.1168 69.4895 58.8762 69.3682C58.6356 69.2469 58.3951 69.1256 57.9139 69.1256H56.4705V71.066H57.9139C58.6356 71.066 59.1168 70.8235 59.2371 70.4596C59.2371 70.3384 59.2371 70.2171 59.2371 69.9745ZM58.0342 73.7341C58.8762 73.7341 59.3574 73.4915 59.4776 73.1277C59.4776 73.0064 59.5979 72.8851 59.5979 72.7639C59.5979 72.4 59.4776 72.1575 59.2371 72.0362C58.9965 71.9149 58.6356 71.7937 58.0342 71.7937H56.4705V73.8553H58.0342V73.7341Z" fill="#F4F4F4"/>
<path d="M63.4471 73.8562C63.9282 73.8562 64.4093 73.6136 64.8905 73.0072V70.3392C64.8905 70.2179 64.8905 70.0966 65.0108 70.0966C65.1311 69.9754 65.1311 69.9754 65.2513 69.9754C65.3716 69.9754 65.4919 69.9754 65.4919 70.0966C65.6122 70.2179 65.6122 70.2179 65.6122 70.3392V74.0987C65.6122 74.22 65.6122 74.3412 65.4919 74.3412C65.3716 74.4625 65.3716 74.4625 65.2513 74.4625C65.1311 74.4625 65.0108 74.4625 65.0108 74.3412C64.8905 74.22 64.8905 74.22 64.8905 74.0987V73.7349C64.6499 73.9774 64.4093 74.0987 64.2891 74.22C63.9282 74.4625 63.6876 74.4625 63.3268 74.4625C62.9659 74.4625 62.7253 74.4625 62.6051 74.3412C62.3645 74.22 62.2442 74.0987 62.1239 73.9774C61.8833 73.6136 61.7631 73.2498 61.7631 72.7647V70.3392C61.7631 70.2179 61.7631 70.0966 61.8833 70.0966C62.0036 69.9754 62.0036 69.9754 62.1239 69.9754C62.2442 69.9754 62.3645 69.9754 62.3645 70.0966C62.4848 70.2179 62.4848 70.2179 62.4848 70.3392V72.7647C62.4848 73.1285 62.6051 73.3711 62.7253 73.4923C62.8456 73.7349 63.0862 73.8562 63.4471 73.8562Z" fill="#F4F4F4"/>
<path d="M68.7397 73.8562C69.3411 73.8562 69.702 73.6136 69.702 73.2498C69.702 73.1285 69.5817 73.0072 69.4614 73.0072C69.3411 72.886 69.2208 72.886 68.9802 72.7647C68.7397 72.7647 68.6194 72.6434 68.3788 72.6434C68.1382 72.6434 67.8977 72.5221 67.7774 72.4009C67.5368 72.2796 67.4165 72.1583 67.2962 72.037C67.176 71.9158 67.0557 71.6732 67.0557 71.4307C67.0557 71.1881 67.0557 70.9456 67.176 70.8243C67.2962 70.703 67.2962 70.4605 67.5368 70.3392C67.8977 70.0966 68.2585 69.9754 68.86 69.9754C69.3411 69.9754 69.702 70.0966 70.1831 70.2179C70.3034 70.2179 70.3034 70.3392 70.4237 70.3392C70.4237 70.4605 70.544 70.4605 70.544 70.5817C70.544 70.703 70.544 70.703 70.4237 70.8243C70.3034 70.9456 70.3034 70.9456 70.1831 70.9456C70.0628 70.9456 70.0628 70.9456 69.9425 70.9456C69.702 70.8243 69.3411 70.8243 68.9802 70.8243C68.6194 70.8243 68.3788 70.8243 68.2585 70.9456C68.1382 71.0668 68.0179 71.1881 68.0179 71.4307C68.0179 71.5519 68.1382 71.6732 68.2585 71.7945C68.3788 71.9158 68.4991 71.9158 68.7397 72.037C68.9802 72.037 69.1005 72.1583 69.3411 72.1583C69.5817 72.1583 69.8222 72.2796 69.9425 72.4009C70.4237 72.6434 70.6642 73.0072 70.6642 73.4923C70.6642 73.8562 70.544 74.22 70.1831 74.4625C69.9425 74.7051 69.4614 74.8264 68.86 74.8264C68.2585 74.8264 67.7774 74.7051 67.2962 74.4625C67.176 74.3413 67.176 74.3413 67.176 74.22C67.176 74.0987 67.176 73.9774 67.2962 73.9774C67.4165 73.8562 67.4165 73.8562 67.5368 73.8562C67.6571 73.8562 67.6571 73.8562 67.7774 73.9774C68.018 73.8562 68.3788 73.8562 68.7397 73.8562Z" fill="#F4F4F4"/>
<path d="M72.5888 68.641C72.5888 68.7623 72.5888 68.8836 72.4685 69.0049C72.4685 69.1261 72.3482 69.1261 72.228 69.1261C72.1077 69.1261 71.9874 69.1261 71.8671 69.0049C71.7468 68.8836 71.7468 68.7623 71.7468 68.641C71.7468 68.5198 71.7468 68.3985 71.8671 68.2772C71.9874 68.1559 72.1077 68.1559 72.228 68.1559C72.3482 68.1559 72.4685 68.1559 72.5888 68.2772C72.5888 68.3985 72.5888 68.5198 72.5888 68.641ZM71.8671 70.0963C71.9874 69.9751 71.9874 69.9751 72.1077 69.9751C72.228 69.9751 72.3483 69.9751 72.3483 70.0963C72.4685 70.2176 72.4685 70.2176 72.4685 70.3389V74.0984C72.4685 74.2197 72.4685 74.3409 72.3483 74.3409C72.228 74.4622 72.228 74.4622 72.1077 74.4622C71.9874 74.4622 71.8671 74.4622 71.8671 74.3409C71.7468 74.2197 71.7468 74.2197 71.7468 74.0984V70.3389C71.7468 70.3389 71.7468 70.2176 71.8671 70.0963Z" fill="#F4F4F4"/>
<path d="M76.438 70.703C75.9568 70.703 75.4757 70.9455 74.9945 71.5519V74.22C74.9945 74.3412 74.9945 74.4625 74.8743 74.4625C74.754 74.5838 74.754 74.5838 74.6337 74.5838C74.5134 74.5838 74.3931 74.5838 74.3931 74.4625C74.2728 74.3412 74.2728 74.3412 74.2728 74.22V70.4604C74.2728 70.3392 74.2728 70.2179 74.3931 70.2179C74.5134 70.0966 74.5134 70.0966 74.6337 70.0966C74.754 70.0966 74.8743 70.0966 74.8743 70.2179C74.9945 70.3392 74.9945 70.3392 74.9945 70.4604V70.8243C75.2351 70.5817 75.4757 70.4604 75.596 70.3392C75.9568 70.0966 76.1974 70.0966 76.5583 70.0966C76.9191 70.0966 77.1597 70.0966 77.28 70.2179C77.5206 70.3392 77.6408 70.4604 77.7611 70.5817C78.0017 70.9455 78.122 71.3094 78.122 71.7945V74.3412C78.122 74.4625 78.122 74.5838 78.0017 74.5838C77.8814 74.7051 77.8814 74.7051 77.7611 74.7051C77.6408 74.7051 77.5206 74.7051 77.5206 74.5838C77.4003 74.4625 77.4003 74.4625 77.4003 74.3412V71.9157C77.4003 71.5519 77.28 71.3094 77.1597 71.1881C77.0394 70.8243 76.7988 70.703 76.438 70.703Z" fill="#F4F4F4"/>
<path d="M80.7683 73.4923C81.0088 73.7349 81.3697 73.8562 81.8508 73.8562C82.332 73.8562 82.6928 73.7349 82.9334 73.6136C83.0537 73.6136 83.174 73.4923 83.174 73.4923C83.2943 73.4923 83.2943 73.4923 83.4146 73.6136C83.5348 73.7349 83.5348 73.7349 83.5348 73.8562C83.5348 73.9774 83.4146 74.0987 83.2943 74.22C83.174 74.3413 83.0537 74.3412 82.9334 74.3412C82.8131 74.3412 82.6928 74.4625 82.5725 74.4625C82.332 74.5838 81.9711 74.5838 81.6103 74.5838C80.8885 74.5838 80.2871 74.3413 79.9263 73.9774C79.5654 73.6136 79.3248 73.0072 79.3248 72.2796C79.3248 71.6732 79.4451 71.0668 79.806 70.703C80.1668 70.2179 80.7683 69.9754 81.3697 69.9754C81.9711 69.9754 82.5725 70.2179 82.9334 70.703C83.2943 71.0668 83.4146 71.6732 83.4146 72.2796C83.4146 72.4009 83.4146 72.5221 83.2943 72.5221C83.174 72.6434 83.174 72.6434 83.0537 72.6434H80.0465C80.2871 73.0072 80.5277 73.2498 80.7683 73.4923ZM81.6103 70.5817C81.1291 70.5817 80.7683 70.8243 80.5277 71.3094C80.4074 71.4307 80.4074 71.6732 80.4074 71.9158H83.0537C83.0537 71.5519 82.9334 71.1881 82.5725 70.9456C82.2117 70.703 81.8508 70.5817 81.6103 70.5817Z" fill="#F4F4F4"/>
<path d="M86.4217 73.8562C87.0232 73.8562 87.384 73.6136 87.384 73.2498C87.384 73.1285 87.2637 73.0072 87.1434 73.0072C87.0232 72.886 86.9029 72.886 86.6623 72.7647C86.4217 72.7647 86.3014 72.6434 86.0609 72.6434C85.8203 72.6434 85.5797 72.5221 85.4594 72.4009C85.3392 72.2796 85.0986 72.1583 84.9783 72.037C84.858 71.9158 84.7377 71.6732 84.7377 71.4307C84.7377 71.1881 84.7377 70.9456 84.858 70.8243C84.9783 70.703 84.9783 70.4605 85.2189 70.3392C85.5797 70.0966 85.9406 69.9754 86.542 69.9754C87.0232 69.9754 87.384 70.0966 87.8652 70.2179C87.9854 70.2179 87.9854 70.3392 88.1057 70.3392C88.1057 70.4605 88.226 70.4605 88.226 70.5817C88.226 70.703 88.226 70.703 88.1057 70.8243C87.9854 70.9456 87.9854 70.9456 87.8652 70.9456C87.7449 70.9456 87.7449 70.9456 87.6246 70.9456C87.384 70.8243 87.0232 70.8243 86.6623 70.8243C86.3014 70.8243 86.0609 70.8243 85.9406 70.9456C85.8203 71.0668 85.7 71.1881 85.7 71.4307C85.7 71.5519 85.8203 71.6732 85.9406 71.7945C86.0609 71.9158 86.1812 71.9158 86.4217 72.037C86.6623 72.037 86.7826 72.1583 87.0232 72.1583C87.2637 72.1583 87.5043 72.2796 87.6246 72.4009C88.1057 72.6434 88.3463 73.0072 88.3463 73.4923C88.3463 73.8562 88.226 74.22 87.8652 74.4625C87.6246 74.7051 87.1434 74.8264 86.542 74.8264C85.9406 74.8264 85.4594 74.7051 84.9783 74.4625C84.858 74.3413 84.858 74.3413 84.858 74.22C84.858 74.0987 84.858 73.9774 84.9783 73.9774C85.0986 73.8562 85.0986 73.8562 85.2189 73.8562C85.3392 73.8562 85.3392 73.8562 85.4594 73.9774C85.5797 73.8562 85.9406 73.8562 86.4217 73.8562Z" fill="#F4F4F4"/>
<path d="M90.752 73.8562C91.3534 73.8562 91.7143 73.6136 91.7143 73.2498C91.7143 73.1285 91.594 73.0072 91.4737 73.0072C91.3534 72.886 91.2331 72.886 90.9926 72.7647C90.752 72.7647 90.6317 72.6434 90.3911 72.6434C90.1506 72.6434 89.91 72.5221 89.7897 72.4009C89.5491 72.2796 89.4289 72.1583 89.3086 72.037C89.1883 71.9158 89.068 71.6732 89.068 71.4307C89.068 71.1881 89.068 70.9456 89.1883 70.8243C89.3086 70.703 89.3086 70.4605 89.5491 70.3392C89.91 70.0966 90.2709 69.9754 90.8723 69.9754C91.3534 69.9754 91.7143 70.0966 92.1954 70.2179C92.3157 70.2179 92.3157 70.3392 92.436 70.3392C92.436 70.4605 92.5563 70.4605 92.5563 70.5817C92.5563 70.703 92.5563 70.703 92.436 70.8243C92.3157 70.9456 92.3157 70.9456 92.1954 70.9456C92.0751 70.9456 92.0751 70.9456 91.9549 70.9456C91.7143 70.8243 91.3534 70.8243 90.9926 70.8243C90.6317 70.8243 90.3911 70.8243 90.2709 70.9456C90.1506 71.0668 90.0303 71.1881 90.0303 71.4307C90.0303 71.5519 90.1506 71.6732 90.2709 71.7945C90.3911 71.9158 90.5114 71.9158 90.752 72.037C90.9926 72.037 91.1129 72.1583 91.3534 72.1583C91.594 72.1583 91.8346 72.2796 91.9549 72.4009C92.436 72.6434 92.6766 73.0072 92.6766 73.4923C92.6766 73.8562 92.5563 74.22 92.1954 74.4625C91.9549 74.7051 91.4737 74.8264 90.8723 74.8264C90.2709 74.8264 89.7897 74.7051 89.3086 74.4625C89.1883 74.3413 89.1883 74.3413 89.1883 74.22C89.1883 74.0987 89.1883 73.9774 89.3086 73.9774C89.4289 73.8562 89.4289 73.8562 89.5491 73.8562C89.6694 73.8562 89.6694 73.8562 89.7897 73.9774C90.0303 73.8562 90.3911 73.8562 90.752 73.8562Z" fill="#F4F4F4"/>
<path d="M98.4503 73.8558C99.4126 73.8558 100.014 73.492 100.014 72.8856C100.014 72.6431 99.7735 72.4005 99.4126 72.158C99.2923 72.0367 99.0518 72.0367 98.8112 71.9154C98.5706 71.9154 98.33 71.7942 98.0895 71.6729C97.8489 71.5516 97.6083 71.5516 97.3678 71.4304C97.1272 71.3091 96.8866 71.1878 96.7663 71.0665C96.4055 70.824 96.1649 70.3389 96.1649 69.8538C96.1649 69.3687 96.4055 68.8836 96.7663 68.641C97.2475 68.2772 97.7286 68.1559 98.4503 68.1559C99.0518 68.1559 99.6532 68.2772 100.134 68.3985C100.255 68.3985 100.375 68.5198 100.375 68.7623C100.375 68.8836 100.375 68.8836 100.255 69.0049C100.134 69.1261 100.134 69.1261 100.014 69.1261C99.8938 69.1261 99.8938 69.1261 99.6532 69.0049C99.2923 68.8836 98.8112 68.7623 98.3301 68.7623C97.8489 68.7623 97.488 68.8836 97.2475 69.0049C97.0069 69.1261 96.7663 69.49 96.7663 69.7325C96.7663 70.0963 97.0069 70.3389 97.3678 70.4602C97.488 70.5814 97.7286 70.5814 97.9692 70.7027C98.2098 70.7027 98.4503 70.824 98.6909 70.824C98.9315 70.824 99.172 70.9453 99.4126 71.0665C99.6532 71.1878 99.7735 71.3091 100.014 71.4304C100.375 71.6729 100.615 72.158 100.615 72.6431C100.615 73.1282 100.375 73.6133 100.014 73.8558C99.6532 74.2197 99.0518 74.3409 98.3301 74.3409C97.6083 74.3409 96.8866 74.2197 96.2852 73.9771C96.1649 73.9771 96.1649 73.8558 96.1649 73.8558C96.1649 73.7346 96.0446 73.7346 96.0446 73.6133C96.0446 73.492 96.0446 73.492 96.1649 73.3707C96.2852 73.2495 96.2852 73.2495 96.4055 73.2495C96.5258 73.2495 96.646 73.2495 96.7663 73.3707C96.8866 73.3707 97.1272 73.492 97.3678 73.6133C97.7286 73.8558 98.0895 73.8558 98.4503 73.8558Z" fill="#F4F4F4"/>
<path d="M104.104 69.9754C104.826 69.9754 105.307 70.2179 105.788 70.5817C106.149 71.0668 106.389 71.5519 106.389 72.2796C106.389 73.0072 106.149 73.4923 105.788 73.9774C105.427 74.4625 104.826 74.5838 104.104 74.5838C103.382 74.5838 102.901 74.3413 102.42 73.9774C102.059 73.4923 101.818 73.0072 101.818 72.2796C101.818 71.5519 102.059 71.0668 102.42 70.5817C102.781 70.2179 103.382 69.9754 104.104 69.9754ZM103.021 73.4923C103.142 73.6136 103.262 73.7349 103.502 73.7349C103.623 73.7349 103.863 73.8562 103.984 73.8562C104.104 73.8562 104.344 73.8562 104.465 73.7349C104.585 73.7349 104.826 73.6136 104.946 73.4923C105.307 73.2498 105.427 72.7647 105.427 72.2796C105.427 71.7945 105.307 71.3094 104.946 71.0668C104.705 70.8243 104.344 70.703 103.984 70.703C103.382 70.703 102.901 70.9456 102.66 71.5519C102.54 71.7945 102.54 72.037 102.54 72.2796C102.54 72.5221 102.54 72.7647 102.66 73.0072C102.781 73.2498 102.901 73.3711 103.021 73.4923Z" fill="#F4F4F4"/>
<path d="M107.833 68.1563C107.953 68.035 107.953 68.035 108.073 68.035C108.193 68.035 108.314 68.035 108.314 68.1563C108.434 68.2775 108.434 68.2775 108.434 68.3988V74.0987C108.434 74.22 108.434 74.3412 108.314 74.3412C108.193 74.4625 108.193 74.4625 108.073 74.4625C107.953 74.4625 107.833 74.4625 107.833 74.3412C107.712 74.22 107.712 74.22 107.712 74.0987V68.3988C107.712 68.2775 107.712 68.2775 107.833 68.1563Z" fill="#F4F4F4"/>
<path d="M111.922 73.8562C112.404 73.8562 112.885 73.6136 113.366 73.0072V70.3392C113.366 70.2179 113.366 70.0966 113.486 70.0966C113.606 69.9754 113.606 69.9754 113.727 69.9754C113.847 69.9754 113.967 69.9754 113.967 70.0966C114.088 70.2179 114.088 70.2179 114.088 70.3392V74.0987C114.088 74.22 114.088 74.3412 113.967 74.3412C113.847 74.4625 113.847 74.4625 113.727 74.4625C113.606 74.4625 113.486 74.4625 113.486 74.3412C113.366 74.22 113.366 74.22 113.366 74.0987V73.7349C113.125 73.9774 112.885 74.0987 112.764 74.22C112.404 74.4625 112.163 74.4625 111.802 74.4625C111.441 74.4625 111.201 74.4625 111.08 74.3412C110.84 74.22 110.72 74.0987 110.599 73.9774C110.359 73.6136 110.238 73.2498 110.238 72.7647V70.3392C110.238 70.2179 110.238 70.0966 110.359 70.0966C110.479 69.9754 110.479 69.9754 110.599 69.9754C110.72 69.9754 110.84 69.9754 110.84 70.0966C110.96 70.2179 110.96 70.2179 110.96 70.3392V72.7647C110.96 73.1285 111.08 73.3711 111.201 73.4923C111.321 73.7349 111.562 73.8562 111.922 73.8562Z" fill="#F4F4F4"/>
<path d="M117.335 73.9772C117.456 73.9772 117.576 73.9772 117.696 73.9772C117.816 73.9772 117.816 73.9772 117.937 73.9772C118.057 73.9772 118.057 73.9772 118.177 74.0985C118.298 74.2198 118.298 74.2198 118.298 74.341C118.298 74.4623 118.298 74.5836 118.177 74.5836C117.937 74.7049 117.696 74.7049 117.576 74.7049C117.456 74.7049 117.215 74.7049 117.095 74.7049C116.974 74.7049 116.854 74.5836 116.614 74.5836C116.253 74.341 116.132 74.0985 116.132 73.6134V70.8241H115.411C115.29 70.8241 115.29 70.8241 115.29 70.7028C115.29 70.7028 115.29 70.5815 115.411 70.5815L116.614 69.3688L116.734 69.2475H116.854V69.3688V70.0964H117.816C117.937 70.0964 118.057 70.0965 118.057 70.2177C118.177 70.339 118.177 70.339 118.177 70.4603C118.177 70.5815 118.177 70.7028 118.057 70.7028C117.937 70.8241 117.937 70.8241 117.816 70.8241H116.854V73.4921C116.854 73.7347 116.974 73.856 117.095 73.9772C117.095 73.856 117.215 73.9772 117.335 73.9772Z" fill="#F4F4F4"/>
<path d="M120.222 68.641C120.222 68.7623 120.222 68.8836 120.102 69.0049C119.981 69.1261 119.861 69.1261 119.741 69.1261C119.621 69.1261 119.5 69.1261 119.38 69.0049C119.26 68.8836 119.26 68.7623 119.26 68.641C119.26 68.5198 119.26 68.3985 119.38 68.2772C119.5 68.1559 119.621 68.1559 119.741 68.1559C119.861 68.1559 119.981 68.1559 120.102 68.2772C120.102 68.3985 120.222 68.5198 120.222 68.641ZM119.38 70.0963C119.5 69.9751 119.5 69.9751 119.621 69.9751C119.741 69.9751 119.861 69.9751 119.861 70.0963C119.981 70.2176 119.981 70.2176 119.981 70.3389V74.0984C119.981 74.2197 119.981 74.3409 119.861 74.3409C119.741 74.4622 119.741 74.4622 119.621 74.4622C119.5 74.4622 119.38 74.4622 119.38 74.3409C119.26 74.2197 119.26 74.2197 119.26 74.0984V70.3389C119.26 70.3389 119.38 70.2176 119.38 70.0963Z" fill="#F4F4F4"/>
<path d="M123.71 69.9754C124.432 69.9754 124.913 70.2179 125.394 70.5817C125.755 71.0668 125.996 71.5519 125.996 72.2796C125.996 73.0072 125.755 73.4923 125.394 73.9774C125.034 74.4625 124.432 74.5838 123.71 74.5838C122.989 74.5838 122.508 74.3413 122.026 73.9774C121.666 73.4923 121.425 73.0072 121.425 72.2796C121.425 71.5519 121.666 71.0668 122.026 70.5817C122.508 70.2179 122.989 69.9754 123.71 69.9754ZM122.748 73.4923C122.868 73.6136 122.989 73.7349 123.229 73.7349C123.35 73.7349 123.59 73.8562 123.71 73.8562C123.831 73.8562 124.071 73.8562 124.192 73.7349C124.312 73.7349 124.552 73.6136 124.673 73.4923C125.034 73.2498 125.154 72.7647 125.154 72.2796C125.154 71.7945 125.034 71.3094 124.673 71.0668C124.432 70.8243 124.071 70.703 123.71 70.703C123.109 70.703 122.628 70.9456 122.387 71.5519C122.267 71.7945 122.267 72.037 122.267 72.2796C122.267 72.5221 122.267 72.7647 122.387 73.0072C122.508 73.2498 122.628 73.3711 122.748 73.4923Z" fill="#F4F4F4"/>
<path d="M129.484 70.703C129.003 70.703 128.522 70.9455 128.041 71.5519V74.22C128.041 74.3412 128.041 74.4625 127.92 74.4625C127.8 74.5838 127.8 74.5838 127.68 74.5838C127.56 74.5838 127.439 74.5838 127.439 74.4625C127.319 74.3412 127.319 74.3412 127.319 74.22V70.4604C127.319 70.3392 127.319 70.2179 127.439 70.2179C127.56 70.0966 127.56 70.0966 127.68 70.0966C127.8 70.0966 127.92 70.0966 127.92 70.2179C128.041 70.3392 128.041 70.3392 128.041 70.4604V70.8243C128.281 70.5817 128.522 70.4604 128.642 70.3392C129.003 70.0966 129.244 70.0966 129.604 70.0966C129.965 70.0966 130.206 70.0966 130.326 70.2179C130.446 70.3392 130.687 70.4604 130.807 70.5817C131.048 70.9455 131.168 71.3094 131.168 71.7945V74.3412C131.168 74.4625 131.168 74.5838 131.048 74.5838C130.928 74.7051 130.928 74.7051 130.807 74.7051C130.687 74.7051 130.567 74.7051 130.567 74.5838C130.446 74.4625 130.446 74.4625 130.446 74.3412V71.9157C130.446 71.5519 130.326 71.3094 130.206 71.1881C130.086 70.8243 129.845 70.703 129.484 70.703Z" fill="#F4F4F4"/>
<path d="M134.296 73.8562C134.897 73.8562 135.258 73.6136 135.258 73.2498C135.258 73.1285 135.138 73.0072 135.017 73.0072C134.897 72.886 134.777 72.886 134.536 72.7647C134.296 72.7647 134.175 72.6434 133.935 72.6434C133.694 72.6434 133.454 72.5221 133.333 72.4009C133.213 72.2796 132.972 72.1583 132.852 72.037C132.732 71.9158 132.612 71.6732 132.612 71.4307C132.612 71.1881 132.612 70.9456 132.732 70.8243C132.852 70.703 132.852 70.4605 133.093 70.3392C133.454 70.0966 133.814 69.9754 134.416 69.9754C134.897 69.9754 135.258 70.0966 135.739 70.2179C135.859 70.2179 135.859 70.3392 135.98 70.3392C135.98 70.4605 136.1 70.4605 136.1 70.5817C136.1 70.703 136.1 70.703 135.98 70.8243C135.859 70.9456 135.859 70.9456 135.739 70.9456C135.619 70.9456 135.619 70.9456 135.498 70.9456C135.258 70.8243 134.897 70.8243 134.536 70.8243C134.175 70.8243 133.935 70.8243 133.814 70.9456C133.694 71.0668 133.574 71.1881 133.574 71.4307C133.574 71.5519 133.694 71.6732 133.814 71.7945C133.935 71.9158 134.055 71.9158 134.296 72.037C134.536 72.037 134.656 72.1583 134.897 72.1583C135.138 72.1583 135.378 72.2796 135.498 72.4009C135.98 72.6434 136.22 73.0072 136.22 73.4923C136.22 73.8562 136.1 74.22 135.739 74.4625C135.498 74.7051 135.017 74.8264 134.416 74.8264C133.814 74.8264 133.333 74.7051 132.852 74.4625C132.732 74.3413 132.732 74.3413 132.732 74.22C132.732 74.0987 132.732 73.9774 132.852 73.9774C132.972 73.8562 132.972 73.8562 133.093 73.8562C133.213 73.8562 133.213 73.8562 133.333 73.9774C133.454 73.8562 133.814 73.8562 134.296 73.8562Z" fill="#F4F4F4"/>
</svg>
