<?xml version="1.0" standalone="no"?>
<!DOCTYPE svg PUBLIC "-//W3C//DTD SVG 20010904//EN"
 "http://www.w3.org/TR/2001/REC-SVG-20010904/DTD/svg10.dtd">
<svg version="1.0" xmlns="http://www.w3.org/2000/svg"
 width="190.000000pt" height="190.000000pt" viewBox="0 0 190.000000 190.000000"
 preserveAspectRatio="xMidYMid meet">
<metadata>
Created by potrace 1.11, written by Peter Selinger 2001-2013
</metadata>
<g transform="translate(0.000000,190.000000) scale(0.100000,-0.100000)"
fill="#000000" stroke="none">
<path d="M845 1886 c-350 -81 -590 -361 -608 -707 -7 -128 23 -288 61 -331 20
-24 65 -23 87 2 16 18 17 25 6 68 -37 142 -41 188 -27 308 12 106 67 228 146
323 122 147 311 229 499 218 174 -11 303 -68 422 -187 127 -127 190 -284 183
-455 -12 -291 -230 -515 -519 -532 -325 -20 -573 275 -494 587 33 129 105 221
214 275 53 26 71 29 155 29 86 1 101 -2 160 -30 76 -36 134 -91 175 -166 27
-48 30 -62 30 -143 0 -73 -4 -98 -22 -130 -44 -83 -121 -134 -212 -142 -104
-10 -178 26 -212 101 -48 105 2 216 97 216 44 0 84 -28 84 -59 0 -46 70 -70
104 -35 58 58 -41 203 -149 220 -158 23 -289 -115 -271 -288 17 -164 146 -279
316 -279 228 -1 406 187 396 420 -15 325 -377 540 -683 405 -271 -119 -391
-466 -258 -749 79 -170 224 -293 399 -338 117 -31 304 -14 423 38 188 83 342
269 388 469 19 80 21 237 4 299 -6 23 -13 49 -14 58 -10 51 -72 174 -121 239
-100 133 -230 226 -387 275 -102 33 -279 43 -372 21z"/>
<path d="M389 763 c-9 -2 -22 -15 -30 -29 -12 -23 -11 -30 10 -68 31 -59 123
-162 201 -224 91 -73 259 -156 298 -147 35 7 53 40 40 75 -6 19 -26 34 -74 54
-133 58 -278 175 -348 280 -32 48 -55 68 -74 65 -4 -1 -14 -3 -23 -6z"/>
<path d="M272 531 c-32 -27 -27 -63 16 -118 79 -99 192 -192 306 -250 42 -21
52 -23 77 -12 59 24 58 74 -2 113 -21 14 -41 26 -45 26 -21 0 -144 103 -211
175 -82 90 -103 100 -141 66z"/>
<path d="M170 310 c-37 -37 -26 -66 58 -150 88 -89 193 -161 224 -155 45 9 73
59 50 90 -4 6 -36 31 -72 57 -36 25 -94 76 -129 112 -68 72 -96 81 -131 46z"/>
</g>
</svg>
